<svg width="29" height="30" viewBox="0 0 29 30" fill="none" xmlns="http://www.w3.org/2000/svg">
<path d="M1.94285 17.2447L0.468278 15.7583C-0.156093 15.1289 -0.156093 14.1111 0.468278 13.4885L13.3741 0.472046C13.9985 -0.157349 15.0081 -0.157349 15.6259 0.472046L28.5317 13.4818C29.1561 14.1111 29.1561 15.1289 28.5317 15.7516L27.0571 17.238C26.4261 17.8741 25.3966 17.8607 24.7789 17.2112L17.1602 9.14965V28.393C17.1602 29.2836 16.4495 30 15.5661 30H13.4406C12.5571 30 11.8464 29.2836 11.8464 28.393V9.14965L4.22114 17.2179C3.60341 17.8741 2.57387 17.8875 1.94285 17.2447Z" fill="white"/>
</svg>
