<svg width="48" height="48" viewBox="0 0 48 48" fill="none" xmlns="http://www.w3.org/2000/svg">
<path d="M20.0449 27.9023C20.0449 29.9379 18.5684 30.5812 16.7543 30.5812H11.9977V25.002H16.8492C18.8109 25.0125 20.0449 25.8246 20.0449 27.9023ZM19.2328 19.2223C19.2328 17.3555 17.7879 16.9125 16.1848 16.9125H12.0082V21.6375H16.5117C18.1043 21.6375 19.2328 20.9414 19.2328 19.2223ZM33.1863 21.6691C31.2563 21.6691 29.9695 22.8715 29.843 24.8016H36.4031C36.2238 22.8504 35.2113 21.6691 33.1863 21.6691ZM47.625 5.4375V42.5625C47.625 45.3574 45.3574 47.625 42.5625 47.625H5.4375C2.64258 47.625 0.375 45.3574 0.375 42.5625V5.4375C0.375 2.64258 2.64258 0.375 5.4375 0.375H42.5625C45.3574 0.375 47.625 2.64258 47.625 5.4375ZM29.0309 16.5117H37.2363V14.5184H29.0309V16.5117ZM24.4957 28.1449C24.4957 25.6031 23.2934 23.4094 20.8043 22.7027C22.6184 21.8379 23.5676 20.8359 23.5676 18.8004C23.5676 14.7715 20.5617 13.7906 17.0918 13.7906H7.54688V34.0406H17.366C21.0469 34.0195 24.4957 32.2582 24.4957 28.1449ZM40.4531 26.584C40.4531 22.2492 37.9113 18.6316 33.3234 18.6316C28.8516 18.6316 25.8246 21.9855 25.8246 26.3941C25.8246 30.9609 28.7039 34.0934 33.3234 34.0934C36.825 34.0934 39.0926 32.5219 40.1895 29.1574H36.6352C36.2449 30.4125 34.6734 31.0664 33.45 31.0664C31.0875 31.0664 29.8535 29.6848 29.8535 27.3434H40.4215C40.432 27.1008 40.4531 26.8371 40.4531 26.584Z" fill="white"/>
</svg>
