<svg width="48" height="48" viewBox="0 0 48 48" fill="none" xmlns="http://www.w3.org/2000/svg">
<path d="M9.88828 21.068C10.827 16.5961 13.8328 12.873 17.8723 10.9746C18.252 11.4914 20.8254 15.0668 23.2195 19.3066C16.4695 21.0996 10.5316 21.0785 9.88828 21.068ZM33.5555 13.2422C30.0117 10.0992 25.1918 8.90742 20.625 10.0148C21.0258 10.5527 23.6414 14.1176 26.0039 18.4523C31.1297 16.5223 33.2918 13.6113 33.5555 13.2422ZM15.1512 35.3906C19.4227 38.7234 24.9914 39.2613 29.632 37.2891C29.4211 36.0234 28.5773 31.6148 26.5523 26.3625C20.741 28.3453 16.6594 32.3109 15.1512 35.3906ZM25.5715 23.9789C25.2129 23.1562 24.8121 22.3441 24.4008 21.532C17.2078 23.6836 10.2258 23.5992 9.59297 23.5781C9.59297 23.7258 9.58242 23.8734 9.58242 24.0211C9.58242 27.723 10.9852 31.098 13.2844 33.6609C15.6258 29.6637 20.3613 25.4449 25.5715 23.9789ZM29.2523 25.698C31.1402 30.8766 31.8996 35.0953 32.0473 35.9707C35.2852 33.7875 37.5844 30.3176 38.2277 26.3098C37.7426 26.1516 33.7664 24.9703 29.2523 25.698ZM27.1113 20.5934C27.6176 21.627 27.9867 22.4707 28.377 23.4199C33.1758 22.8188 37.943 23.7785 38.4176 23.884C38.3859 20.4773 37.173 17.3555 35.1586 14.9086C34.8527 15.3199 32.4375 18.4102 27.1113 20.5934ZM47.625 5.4375V42.5625C47.625 45.3574 45.3574 47.625 42.5625 47.625H5.4375C2.64258 47.625 0.375 45.3574 0.375 42.5625V5.4375C0.375 2.64258 2.64258 0.375 5.4375 0.375H42.5625C45.3574 0.375 47.625 2.64258 47.625 5.4375ZM40.875 24C40.875 14.6977 33.3023 7.125 24 7.125C14.6977 7.125 7.125 14.6977 7.125 24C7.125 33.3023 14.6977 40.875 24 40.875C33.3023 40.875 40.875 33.3023 40.875 24Z" fill="white"/>
</svg>
