<svg width="51" height="42" viewBox="0 0 51 42" fill="none" xmlns="http://www.w3.org/2000/svg">
<path d="M49.7344 34.5C50.4305 34.5 51 35.0695 51 35.7656V39.9844C51 40.6805 50.4305 41.25 49.7344 41.25H-1.73438C-2.43047 41.25 -3 40.6805 -3 39.9844V2.01562C-3 1.31953 -2.43047 0.75 -1.73438 0.75H2.48438C3.18047 0.75 3.75 1.31953 3.75 2.01562V34.5H49.7344ZM36.3082 10.8223L27.375 16.7812L18.3785 4.78945C17.8406 4.07227 16.7437 4.125 16.2797 4.89492L7.125 20.1562V31.125H47.625L38.1434 11.318C37.8059 10.6324 36.941 10.4004 36.3082 10.8223Z" fill="black"/>
</svg>
