<svg width="32" height="46" viewBox="0 0 32 46" fill="none" xmlns="http://www.w3.org/2000/svg">
<path d="M8.81789 40.8205C8.81879 41.3856 8.9859 41.939 9.29945 42.4098L10.8349 44.7179C11.0972 45.1125 11.4529 45.4361 11.8705 45.6599C12.2881 45.8837 12.7545 46.0009 13.2283 46.0009H18.7726C19.2464 46.0009 19.7128 45.8837 20.1304 45.6599C20.548 45.4361 20.9037 45.1125 21.166 44.7179L22.7014 42.4098C23.0149 41.939 23.1824 41.3861 23.183 40.8205L23.1866 37.375H8.8134L8.81789 40.8205ZM0.1875 15.8125C0.1875 19.7988 1.66543 23.4357 4.10109 26.2146C5.58531 27.9081 7.90687 31.4462 8.79184 34.4308C8.79543 34.4542 8.79812 34.4775 8.80172 34.5009H23.1983C23.2019 34.4775 23.2046 34.4551 23.2082 34.4308C24.0931 31.4462 26.4147 27.9081 27.8989 26.2146C30.3346 23.4357 31.8125 19.7988 31.8125 15.8125C31.8125 7.0626 24.7068 -0.0269681 15.9506 -1.49539e-05C6.78562 0.0278366 0.1875 7.45432 0.1875 15.8125ZM16 8.62498C12.037 8.62498 8.8125 11.8495 8.8125 15.8125C8.8125 16.6067 8.16922 17.25 7.375 17.25C6.58078 17.25 5.9375 16.6067 5.9375 15.8125C5.9375 10.2637 10.4513 5.74998 16 5.74998C16.7942 5.74998 17.4375 6.39327 17.4375 7.18748C17.4375 7.9817 16.7942 8.62498 16 8.62498Z" fill="black"/>
</svg>
