<svg width="48" height="48" viewBox="0 0 48 48" fill="none" xmlns="http://www.w3.org/2000/svg">
<path d="M24.0327 12.3786C17.3249 12.3786 11.9144 17.7891 11.9144 24.4969C11.9144 31.2047 17.3249 36.6153 24.0327 36.6153C30.7406 36.6153 36.1511 31.2047 36.1511 24.4969C36.1511 17.7891 30.7406 12.3786 24.0327 12.3786ZM24.0327 32.3754C19.698 32.3754 16.1542 28.8422 16.1542 24.4969C16.1542 20.1516 19.6874 16.6184 24.0327 16.6184C28.3781 16.6184 31.9113 20.1516 31.9113 24.4969C31.9113 28.8422 28.3675 32.3754 24.0327 32.3754ZM39.4734 11.8829C39.4734 13.4543 38.2077 14.7094 36.6468 14.7094C35.0753 14.7094 33.8202 13.4438 33.8202 11.8829C33.8202 10.3219 35.0859 9.0563 36.6468 9.0563C38.2077 9.0563 39.4734 10.3219 39.4734 11.8829ZM47.4995 14.7516C47.3202 10.9653 46.4554 7.61138 43.6816 4.8481C40.9183 2.08481 37.5644 1.21997 33.7781 1.03013C29.8757 0.808643 18.1792 0.808643 14.2769 1.03013C10.5011 1.20942 7.14719 2.07427 4.37336 4.83755C1.59954 7.60083 0.745239 10.9547 0.555395 14.7411C0.333911 18.6434 0.333911 30.3399 0.555395 34.2422C0.734692 38.0286 1.59954 41.3825 4.37336 44.1457C7.14719 46.909 10.4906 47.7739 14.2769 47.9637C18.1792 48.1852 29.8757 48.1852 33.7781 47.9637C37.5644 47.7844 40.9183 46.9196 43.6816 44.1457C46.4449 41.3825 47.3097 38.0286 47.4995 34.2422C47.721 30.3399 47.721 18.654 47.4995 14.7516ZM42.4581 38.4293C41.6355 40.4965 40.0429 42.0891 37.9652 42.9223C34.8538 44.1563 27.471 43.8715 24.0327 43.8715C20.5945 43.8715 13.2011 44.1457 10.1003 42.9223C8.03313 42.0997 6.44055 40.5071 5.60735 38.4293C4.37336 35.318 4.65813 27.9352 4.65813 24.4969C4.65813 21.0586 4.38391 13.6653 5.60735 10.5645C6.43001 8.49731 8.02258 6.90474 10.1003 6.07153C13.2116 4.83755 20.5945 5.12231 24.0327 5.12231C27.471 5.12231 34.8644 4.84809 37.9652 6.07153C40.0324 6.89419 41.6249 8.48677 42.4581 10.5645C43.6921 13.6758 43.4073 21.0586 43.4073 24.4969C43.4073 27.9352 43.6921 35.3286 42.4581 38.4293Z" fill="white"/>
</svg>
