<svg width="54" height="54" viewBox="0 0 54 54" fill="none" xmlns="http://www.w3.org/2000/svg">
<path d="M27.0126 25.9411C25.6152 25.9411 24.4814 27.0738 24.4814 28.4723C24.6016 36.0925 23.6229 43.4384 21.5599 50.7843C21.272 51.8094 21.7867 54 23.9983 54C25.1037 54 26.1193 53.2701 26.4336 52.1522C27.8606 47.0992 29.7074 38.9253 29.5428 28.4723C29.5439 27.0749 28.4112 25.9411 27.0126 25.9411ZM26.9219 17.3211C20.4609 17.3137 15.9521 22.2855 16.0418 27.983C16.1209 33.0391 15.6463 38.0985 14.6317 43.0175C14.348 44.3865 15.2297 45.727 16.5976 46.0086C17.974 46.2902 19.305 45.4117 19.5887 44.0427C20.6792 38.7598 21.1887 33.3292 21.1043 27.9039C21.061 25.1669 23.2052 22.3678 26.8471 22.3836C30.1493 22.4332 32.8746 25.0562 32.9242 28.234C33.0054 33.3018 32.6278 38.3938 31.8051 43.374C31.5763 44.7514 32.5107 46.055 33.8892 46.2828C35.9954 46.6341 36.7168 44.6903 36.798 44.1977C37.6713 38.9211 38.07 33.5232 37.9867 28.1549C37.8939 22.2697 32.9305 17.4097 26.9219 17.3211ZM15.2476 15.235C14.1613 14.3553 12.5719 14.5178 11.687 15.602C8.98487 18.9243 7.53256 23.1198 7.60006 27.4145C7.66229 31.378 7.33956 35.3531 6.63924 39.2323C6.39245 40.6086 7.30475 41.9249 8.68112 42.1738C10.8021 42.5429 11.5362 40.6118 11.6226 40.1319C12.381 35.93 12.7301 31.6248 12.6626 27.3354C12.613 24.184 13.6329 21.2309 15.6157 18.7956C16.4964 17.7114 16.3318 16.1177 15.2476 15.235ZM26.7933 8.66109C25.168 8.61784 23.5374 8.81296 21.9649 9.18527C20.6054 9.508 19.7638 10.8707 20.0844 12.2323C20.4071 13.5918 21.7719 14.4292 23.1314 14.1128C24.2968 13.8375 25.5013 13.7151 26.7173 13.7236C34.6728 13.8428 41.2435 20.2099 41.3648 27.9176C41.4271 31.9127 41.2298 35.9448 40.7763 39.902C40.6181 41.291 41.6148 42.5471 43.0028 42.7053C44.7662 42.911 45.6933 41.4524 45.8061 40.4789C46.2854 36.2832 46.4929 32.0609 46.4273 27.8385C46.2628 17.4234 37.4551 8.81929 26.7933 8.66109ZM53.3788 21.4703C53.0771 20.1076 51.743 19.2343 50.3613 19.5434C48.9965 19.845 48.1338 21.195 48.4354 22.5608C48.9322 24.8189 48.9533 26.5064 48.9312 29.0577C48.9196 30.4573 50.0438 31.5984 51.4413 31.61H51.4624C52.8514 31.61 53.9821 30.491 53.9937 29.0999C54.0126 26.7606 54.0358 24.4477 53.3788 21.4703ZM49.1474 11.9021C44.011 4.58366 35.6062 0.136048 26.6635 0.00210242C19.3029 -0.0864913 12.4949 2.62722 7.43131 7.69288C2.54073 12.5898 -0.0949367 19.0941 0.0147508 26.0139L0.00209454 28.2783C-0.0390383 29.6757 1.05995 30.8422 2.45741 30.8823C2.48166 30.8844 2.50803 30.8844 2.53334 30.8844C3.896 30.8844 5.02135 29.7981 5.06143 28.427L5.07831 25.9337C4.99077 20.3966 7.09909 15.1907 11.0141 11.2735C15.1021 7.18136 20.6476 4.98023 26.5897 5.06566C33.9145 5.17429 40.7995 8.81613 45.0067 14.8099C45.8093 15.9553 47.386 16.2285 48.5314 15.428C49.6747 14.6243 49.951 13.0454 49.1474 11.9021Z" fill="black"/>
</svg>
