<svg width="40" height="51" viewBox="0 0 40 51" fill="none" xmlns="http://www.w3.org/2000/svg">
<path d="M26.5 14.3438V3.1875C26.5 1.4271 27.9551 0 29.75 0C31.5449 0 33 1.4271 33 3.1875V14.3438H26.5ZM37.875 15.9375H2.125C1.22749 15.9375 0.5 16.651 0.5 17.5312V20.7188C0.5 21.599 1.22749 22.3125 2.125 22.3125H3.75V25.5C3.75 33.2104 9.33279 39.6416 16.75 41.1184V51H23.25V41.1184C30.6672 39.6416 36.25 33.2104 36.25 25.5V22.3125H37.875C38.7725 22.3125 39.5 21.599 39.5 20.7188V17.5312C39.5 16.651 38.7725 15.9375 37.875 15.9375ZM13.5 14.3438V3.1875C13.5 1.4271 12.0449 0 10.25 0C8.45509 0 7 1.4271 7 3.1875V14.3438H13.5Z" fill="black"/>
</svg>
