<svg width="54" height="48" viewBox="0 0 54 48" fill="none" xmlns="http://www.w3.org/2000/svg">
<path d="M44.107 15.6891C43.5375 15.4992 42.968 15.3199 42.3984 15.1512C42.4934 14.7609 42.5777 14.3707 42.6621 13.9805C43.9594 7.69452 43.1051 2.64257 40.2258 0.976165C37.452 -0.616413 32.9273 1.03945 28.35 5.02617C27.8965 5.4164 27.4535 5.82773 27.0316 6.23906C26.7469 5.96484 26.4516 5.69062 26.1562 5.42695C21.3574 1.16601 16.548 -0.62696 13.6688 1.04999C10.9055 2.65312 10.0828 7.40976 11.243 13.3582C11.359 13.9488 11.4855 14.5289 11.6332 15.1195C10.9582 15.3094 10.2937 15.5203 9.67148 15.7418C4.03945 17.693 0 20.7726 0 23.9578C0 27.2484 4.30313 30.5496 10.1566 32.5535C10.6313 32.7117 11.1059 32.8699 11.591 33.007C11.4328 33.6398 11.2957 34.2621 11.1691 34.9055C10.0617 40.759 10.9266 45.3996 13.6898 46.9922C16.5375 48.6375 21.3258 46.95 25.9875 42.8683C26.3566 42.5414 26.7258 42.2039 27.0949 41.8453C27.559 42.2988 28.0441 42.7312 28.5293 43.1531C33.0434 47.0344 37.5047 48.6059 40.2574 47.0133C43.1051 45.368 44.0332 40.3793 42.8309 34.3043C42.7359 33.8402 42.6305 33.3656 42.5145 32.8805C42.852 32.7855 43.1789 32.6801 43.5059 32.5746C49.5914 30.5601 54 27.3012 54 23.9578C54 20.7621 49.8445 17.6613 44.107 15.6891ZM29.8371 6.73476C33.7605 3.31757 37.4203 1.97812 39.0867 2.93788C40.8691 3.96093 41.5547 8.0953 40.4367 13.5269C40.3629 13.8855 40.2891 14.2336 40.1941 14.5816C37.8527 14.0543 35.4797 13.6746 33.0961 13.4637C31.725 11.5019 30.2273 9.6246 28.6031 7.86327C29.0145 7.47304 29.4152 7.1039 29.8371 6.73476ZM17.6344 29.4316C18.1723 30.3492 18.7207 31.2668 19.3008 32.1633C17.6555 31.984 16.0207 31.7203 14.407 31.3723C14.8711 29.8535 15.4512 28.282 16.1262 26.6789C16.6113 27.607 17.107 28.5246 17.6344 29.4316ZM14.4387 16.7437C15.9574 16.4062 17.5711 16.132 19.248 15.9211C18.6891 16.7965 18.1406 17.693 17.6238 18.6C17.107 19.4965 16.6008 20.4141 16.1262 21.3422C15.4617 19.7707 14.9027 18.2309 14.4387 16.7437ZM17.3285 24.0105C18.0246 22.5551 18.784 21.1312 19.5855 19.7285C20.3871 18.3258 21.252 16.9652 22.159 15.6258C23.741 15.5098 25.3547 15.4465 27 15.4465C28.6453 15.4465 30.2695 15.5098 31.841 15.6258C32.7375 16.9547 33.5918 18.3152 34.4039 19.7074C35.216 21.0996 35.9754 22.5234 36.6926 23.9683C35.9859 25.4238 35.2266 26.8582 34.4145 28.2715C33.6129 29.6742 32.7586 31.0348 31.8621 32.3848C30.2906 32.5008 28.6559 32.5535 27 32.5535C25.3441 32.5535 23.741 32.5008 22.1906 32.4058C21.273 31.0664 20.4082 29.6953 19.5961 28.2926C18.784 26.8898 18.0352 25.466 17.3285 24.0105ZM36.3762 29.4105C36.9141 28.4824 37.4203 27.5437 37.916 26.5945C38.591 28.1238 39.1816 29.6742 39.6984 31.2668C38.0637 31.6359 36.4078 31.9207 34.7414 32.1105C35.3109 31.2246 35.8488 30.3176 36.3762 29.4105ZM37.8949 21.3422C37.3992 20.4141 36.893 19.4859 36.3656 18.5789C35.8488 17.6824 35.3109 16.7965 34.752 15.9211C36.45 16.132 38.0742 16.4168 39.593 16.7648C39.1078 18.3258 38.5383 19.8445 37.8949 21.3422ZM27.0211 9.47695C28.1285 10.6793 29.1727 11.9449 30.143 13.2527C28.0547 13.1578 25.9559 13.1578 23.8676 13.2527C24.9012 11.8922 25.9664 10.6266 27.0211 9.47695ZM14.7867 3.01171C16.5586 1.97812 20.4926 3.45468 24.6375 7.12499C24.9012 7.35702 25.1648 7.61015 25.4391 7.86327C23.8043 9.6246 22.2961 11.5019 20.9145 13.4637C18.5309 13.6746 16.1684 14.0437 13.827 14.5605C13.6898 14.0226 13.5738 13.4742 13.4578 12.9258C12.4664 7.82109 13.1203 3.97148 14.7867 3.01171ZM12.2027 30.8133C11.7598 30.6867 11.3273 30.5496 10.8949 30.4019C8.64844 29.6953 6.09609 28.5773 4.25039 27.1113C3.18516 26.373 2.46797 25.234 2.26758 23.9578C2.26758 22.0277 5.60039 19.5598 10.4098 17.8828C11.0109 17.6719 11.6227 17.482 12.2344 17.3027C12.9516 19.5914 13.8164 21.8379 14.8184 24.0105C13.8059 26.2148 12.9305 28.493 12.2027 30.8133ZM24.5004 41.1492C22.7602 42.7418 20.7457 44.0074 18.552 44.8723C17.3812 45.4312 16.0312 45.484 14.8289 45.0094C13.152 44.0391 12.4559 40.316 13.4051 35.3062C13.5211 34.7156 13.6477 34.125 13.7953 33.5449C16.1578 34.0512 18.5414 34.3992 20.9566 34.5785C22.3488 36.5508 23.8781 38.4387 25.5129 40.2105C25.1754 40.5375 24.8379 40.8539 24.5004 41.1492ZM27.0844 38.5863C26.0086 37.4262 24.9328 36.1394 23.8887 34.7578C24.9012 34.8 25.9453 34.8211 27 34.8211C28.0863 34.8211 29.1516 34.8 30.2062 34.7473C29.2359 36.0867 28.1918 37.3629 27.0844 38.5863ZM40.8691 41.7504C40.7742 43.0371 40.1414 44.2394 39.1289 45.0516C37.452 46.0219 33.8766 44.7562 30.0164 41.4445C29.5734 41.0648 29.1305 40.6535 28.677 40.2316C30.2906 38.4492 31.7777 36.5613 33.1277 34.5785C35.543 34.3781 37.9477 34.009 40.3207 33.4711C40.4262 33.9035 40.5211 34.3359 40.6055 34.7578C41.1223 37.0359 41.2066 39.409 40.8691 41.7504ZM42.7887 30.4125C42.4934 30.5074 42.198 30.6023 41.8922 30.6867C41.1539 28.3875 40.2469 26.141 39.2027 23.9578C40.2152 21.8062 41.0695 19.5914 41.7867 17.3238C42.3352 17.482 42.8625 17.6508 43.3688 17.8195C48.2836 19.507 51.7324 22.0172 51.7324 23.9367C51.7324 26.0039 48.0516 28.6723 42.7887 30.4125ZM27 28.8305C29.6684 28.8305 31.8305 26.6684 31.8305 24C31.8305 21.3316 29.6684 19.1695 27 19.1695C24.3316 19.1695 22.1695 21.3316 22.1695 24C22.1695 26.6684 24.3316 28.8305 27 28.8305Z" fill="black"/>
</svg>
