<svg width="40" height="51" viewBox="0 0 40 51" fill="none" xmlns="http://www.w3.org/2000/svg">
<path d="M39.5 14.3438C39.5 9.94102 35.8641 6.375 31.375 6.375C26.8859 6.375 23.25 9.94102 23.25 14.3438C23.25 17.9695 25.718 21.0275 29.0898 21.9937C29.0289 23.5975 28.6633 24.8326 27.9727 25.6693C26.4086 27.5818 22.9656 27.9006 19.3195 28.2293C16.4555 28.4883 13.4898 28.7672 11.0625 29.9127V15.5689C14.3633 14.5529 16.75 11.5348 16.75 7.96875C16.75 3.56602 13.1141 0 8.625 0C4.13594 0 0.5 3.56602 0.5 7.96875C0.5 11.5348 2.88672 14.5529 6.1875 15.5689V35.4211C2.88672 36.4471 0.5 39.4652 0.5 43.0312C0.5 47.434 4.13594 51 8.625 51C13.1141 51 16.75 47.434 16.75 43.0312C16.75 39.6445 14.5969 36.7459 11.55 35.6004C11.8648 35.0824 12.3422 34.6242 13.0633 34.2656C14.7086 33.4488 17.1664 33.2297 19.7766 32.9906C24.0625 32.6021 28.9172 32.1539 31.7812 28.6676C33.2031 26.9344 33.9242 24.7031 33.975 21.9041C37.1844 20.8283 39.5 17.85 39.5 14.3438ZM8.625 6.375C9.51875 6.375 10.25 7.09219 10.25 7.96875C10.25 8.84531 9.51875 9.5625 8.625 9.5625C7.73125 9.5625 7 8.84531 7 7.96875C7 7.09219 7.73125 6.375 8.625 6.375ZM8.625 44.625C7.73125 44.625 7 43.9078 7 43.0312C7 42.1547 7.73125 41.4375 8.625 41.4375C9.51875 41.4375 10.25 42.1547 10.25 43.0312C10.25 43.9078 9.51875 44.625 8.625 44.625ZM31.375 12.75C32.2687 12.75 33 13.4672 33 14.3438C33 15.2203 32.2687 15.9375 31.375 15.9375C30.4813 15.9375 29.75 15.2203 29.75 14.3438C29.75 13.4672 30.4813 12.75 31.375 12.75Z" fill="black"/>
</svg>
