<svg width="74" height="49" fill="none" xmlns="http://www.w3.org/2000/svg">
  <path d="M8.368 45.558a78.568 78.568 0 0 1-6.477 3.262 38.443 38.443 0 0 1-1.38-13.769 38.174 38.174 0 0 1 5.738-17.268C9.52 12.598 13.983 8.32 19.25 5.328A35.92 35.92 0 0 1 36.443.626a35.88 35.88 0 0 1 17.324 4.163c5.353 2.827 9.943 6.963 13.364 12.044a38.122 38.122 0 0 1 6.25 17.08 38.451 38.451 0 0 1-1.272 14.907 78.603 78.603 0 0 1-6.477-3.262 31.013 31.013 0 0 0 .705-10.822 30.742 30.742 0 0 0-5.039-13.774 29.77 29.77 0 0 0-10.777-9.712 28.934 28.934 0 0 0-13.97-3.357 28.965 28.965 0 0 0-13.865 3.791 29.838 29.838 0 0 0-10.483 10.044 30.783 30.783 0 0 0-4.628 13.926 31.01 31.01 0 0 0 .793 9.904Z" fill="#7FB5E6"/>
</svg>
